Screens 
http://cdn.piczend.com/images/Xm00ruvv/1358647542_vlcsnap-2013-01-18-18h23m17s9.png 
http://cdn.piczend.com/images/NyI5A4V4/1358647544_vlcsnap-2013-01-18-18h23m22s58.png 
http://cdn.piczend.com/images/dR0vOFnQ/1358647546_vlcsnap-2013-01-18-18h23m26s100.png 
http://cdn.piczend.com/images/xeXcKQTQ/1358647547_vlcsnap-2013-01-18-18h23m34s183.png 
http://cdn.piczend.com/images/QKcVO3jJ/1358647546_vlcsnap-2013-01-18-18h23m40s238.png 
http://cdn.piczend.com/images/oln6WVsM/1358647547_vlcsnap-2013-01-18-18h23m45s33.png


Info :
Video
ID : 0
Format : MPEG-4 Visual
Format profile : Advanced Simple@L5
Format settings, BVOP : 2
Format settings, QPel : No
Format settings, GMC : No warppoints
Format settings, Matrix : Default (H.263)
Muxing mode : Packed bitstream
Codec ID : XVID
Codec ID/Hint : XviD
Duration : 1h 5mn
Bit rate : 1 394 Kbps
Width : 640 pixels
Height : 364 pixels
Display aspect ratio : 16:9
Frame rate : 29.970 fps
Color space : YUV
Chroma subsampling : 4:2:0
Bit depth : 8 bits
Scan type : Progressive
Compression mode : Lossy
Bits/(Pixel*Frame) : 0.200
Stream size : 652 MiB (75%)
Writing library : XviD 1.2.1 (UTC 2008-12-04)

Audio
ID : 1
Format : AC-3
Format/Info : Audio Coding 3
Mode extension : CM (complete main)
Format settings, Endianness : Big
Codec ID : 2000
Duration : 1h 5mn
Bit rate mode : Constant
Bit rate : 448 Kbps
Channel(s) : 6 channels
Channel positions : Front: L C R, Side: L R, LFE
Sampling rate : 48.0 KHz
Bit depth : 16 bits
Compression mode : Lossy
Stream size : 210 MiB (24%)
Alignment : Aligned on interleaves
Interleave, duration : 32 ms (0.96 video frame)
